<svg width="37" height="37" viewBox="0 0 37 37" fill="none" xmlns="http://www.w3.org/2000/svg">
<path d="M7.25 29.7197H8.9L25.5125 13.1072L23.8625 11.4572L7.25 28.0697V29.7197ZM30.275 11.4947L25.475 6.69468L27.05 5.11968C27.475 4.69468 28 4.48218 28.625 4.48218C29.25 4.48218 29.775 4.69468 30.2 5.11968L31.85 6.76968C32.275 7.19468 32.4875 7.71968 32.4875 8.34468C32.4875 8.96968 32.275 9.49468 31.85 9.91968L30.275 11.4947ZM28.7 13.0697L9.8 31.9697H5V27.1697L23.9 8.26968L28.7 13.0697ZM24.6875 12.2822L23.8625 11.4572L25.5125 13.1072L24.6875 12.2822Z" fill="#FFAB00"/>
</svg>
