<svg width="36" height="36" viewBox="0 0 36 36" fill="none" xmlns="http://www.w3.org/2000/svg">
<path d="M18 23.9384C19.7257 23.9384 21.1901 23.3368 22.3932 22.1337C23.5964 20.9306 24.1979 19.4662 24.1979 17.7405C24.1979 16.0148 23.5964 14.5504 22.3932 13.3472C21.1901 12.1441 19.7257 11.5426 18 11.5426C16.2743 11.5426 14.8099 12.1441 13.6068 13.3472C12.4037 14.5504 11.8021 16.0148 11.8021 17.7405C11.8021 19.4662 12.4037 20.9306 13.6068 22.1337C14.8099 23.3368 16.2743 23.9384 18 23.9384ZM18 21.8238C16.8576 21.8238 15.8915 21.4288 15.1016 20.6389C14.3116 19.849 13.9167 18.8828 13.9167 17.7405C13.9167 16.5981 14.3116 15.632 15.1016 14.842C15.8915 14.0521 16.8576 13.6571 18 13.6571C19.1424 13.6571 20.1085 14.0521 20.8984 14.842C21.6884 15.632 22.0833 16.5981 22.0833 17.7405C22.0833 18.8828 21.6884 19.849 20.8984 20.6389C20.1085 21.4288 19.1424 21.8238 18 21.8238ZM18 28.678C14.4514 28.678 11.2431 27.6693 8.37501 25.6519C5.50695 23.6346 3.36807 20.9974 1.95834 17.7405C3.36807 14.4835 5.50695 11.8464 8.37501 9.82902C11.2431 7.81166 14.4514 6.80298 18 6.80298C21.5486 6.80298 24.757 7.81166 27.625 9.82902C30.4931 11.8464 32.632 14.4835 34.0417 17.7405C32.632 20.9974 30.4931 23.6346 27.625 25.6519C24.757 27.6693 21.5486 28.678 18 28.678ZM18 26.4905C20.941 26.4905 23.645 25.6945 26.112 24.1025C28.579 22.5104 30.4566 20.3898 31.7448 17.7405C30.4566 15.0912 28.579 12.9705 26.112 11.3785C23.645 9.78649 20.941 8.99048 18 8.99048C15.059 8.99048 12.355 9.78649 9.88803 11.3785C7.42102 12.9705 5.53126 15.0912 4.21876 17.7405C5.53126 20.3898 7.42102 22.5104 9.88803 24.1025C12.355 25.6945 15.059 26.4905 18 26.4905Z" fill="#0000FF"/>
</svg>
